<?xml version="1.0" encoding="UTF-8"?>
<!DOCTYPE svg PUBLIC "-//W3C//DTD SVG 1.1//EN" "http://www.w3.org/Graphics/SVG/1.1/DTD/svg11.dtd">
<svg xmlns="http://www.w3.org/2000/svg" version="1.1" width="512px" height="512px" style="shape-rendering:geometricPrecision; text-rendering:geometricPrecision; image-rendering:optimizeQuality; fill-rule:evenodd; clip-rule:evenodd" xmlns:xlink="http://www.w3.org/1999/xlink">
<g><path style="opacity:1" fill="#31859c" d="M -0.5,-0.5 C 170.167,-0.5 340.833,-0.5 511.5,-0.5C 511.5,170.167 511.5,340.833 511.5,511.5C 340.833,511.5 170.167,511.5 -0.5,511.5C -0.5,340.833 -0.5,170.167 -0.5,-0.5 Z"/></g>
<g><path style="opacity:1" fill="#fefefe" d="M 235.5,36.5 C 323.98,32.6454 390.48,68.6454 435,144.5C 459.782,193.945 464.448,245.279 449,298.5C 424.179,370.988 374.679,416.821 300.5,436C 215.283,451.785 145.783,425.951 92,358.5C 54.2106,304.485 43.8773,245.485 61,181.5C 80.4311,121.398 118.931,78.2316 176.5,52C 195.764,44.769 215.43,39.6024 235.5,36.5 Z"/></g>
<g><path style="opacity:1" fill="#33869c" d="M 254.5,133.5 C 283.32,131.56 309.987,138.06 334.5,153C 340.442,157.142 345.775,161.975 350.5,167.5C 342.833,175.833 334.833,183.833 326.5,191.5C 299.764,167.818 269.43,161.985 235.5,174C 198.573,193.374 185.073,223.541 195,264.5C 207.021,296.859 230.354,313.859 265,315.5C 281.394,316.023 296.727,312.357 311,304.5C 311.5,282.836 311.667,261.169 311.5,239.5C 323.833,239.5 336.167,239.5 348.5,239.5C 348.667,267.502 348.5,295.502 348,323.5C 315.914,345.829 280.414,353.995 241.5,348C 189.753,336.252 160.253,304.086 153,251.5C 151.001,197.191 175.168,160.024 225.5,140C 235.131,137.053 244.798,134.886 254.5,133.5 Z"/></g>
</svg>
